<svg xmlns="http://www.w3.org/2000/svg" viewBox="0 0 512 512" role="img" aria-labelledby="title desc">
  <title id="title">Funnel application icon</title>
  <desc id="desc">Three payload tiles flow through a luminous funnel into one Linux desktop application tile.</desc>
  <defs>
    <linearGradient id="bg" x1="0" y1="0" x2="1" y2="1">
      <stop offset="0" stop-color="#111827"/><stop offset="1" stop-color="#070B14"/>
    </linearGradient>
    <linearGradient id="flow" x1="0" y1="0" x2="1" y2="1">
      <stop offset="0" stop-color="#50E3FF"/><stop offset="0.52" stop-color="#6D7CFF"/><stop offset="1" stop-color="#B46CFF"/>
    </linearGradient>
    <linearGradient id="out" x1="0" y1="0" x2="1" y2="1">
      <stop offset="0" stop-color="#B8FF70"/><stop offset="1" stop-color="#37D67A"/>
    </linearGradient>
  </defs>
  <rect x="20" y="20" width="472" height="472" rx="104" fill="url(#bg)"/>
  <rect x="20" y="20" width="472" height="472" rx="104" fill="none" stroke="#253047" stroke-width="8"/>
  <g fill="none" stroke="url(#flow)" stroke-width="22" stroke-linecap="round" opacity=".92">
    <path d="M142 126 L204 188"/><path d="M256 112 L256 178"/><path d="M370 126 L308 188"/>
  </g>
  <g>
    <rect x="100" y="78" width="74" height="74" rx="18" fill="#50E3FF"/>
    <rect x="219" y="60" width="74" height="74" rx="18" fill="#7882FF"/>
    <rect x="338" y="78" width="74" height="74" rx="18" fill="#B46CFF"/>
    <path d="M120 101h34M120 118h34M120 135h22" stroke="#0B1322" stroke-width="8" stroke-linecap="round" opacity=".8"/>
    <path d="M239 83h34M239 100h34M239 117h22" stroke="#10142A" stroke-width="8" stroke-linecap="round" opacity=".8"/>
    <path d="M358 101h34M358 118h34M358 135h22" stroke="#21112E" stroke-width="8" stroke-linecap="round" opacity=".8"/>
  </g>
  <path d="M120 182 H392 L302 292 V350 L256 382 L210 350 V292 Z" fill="url(#flow)"/>
  <path d="M153 204 H359 L279 302 V335 L256 351 L233 335 V302 Z" fill="#0A1020" opacity=".64"/>
  <path d="M256 366 V400" stroke="#37D67A" stroke-width="22" stroke-linecap="round"/>
  <rect x="183" y="386" width="146" height="86" rx="24" fill="url(#out)"/>
  <rect x="203" y="404" width="106" height="48" rx="10" fill="#0B3424" opacity=".88"/>
  <path d="M224 440l18-18 14 13 28-25" fill="none" stroke="#D9FFD5" stroke-width="9" stroke-linecap="round" stroke-linejoin="round"/>
</svg>